<mxfile host="app.diagrams.net" modified="2021-09-03T03:37:06.531Z" agent="5.0 (Macintosh; Intel Mac OS X 10_15_7) AppleWebKit/537.36 (KHTML, like Gecko) Chrome/92.0.4515.159 Safari/537.36" etag="EJsUTuBCuHqyK9NTshXJ" version="15.0.4" type="github">
  <diagram id="AIX3p-sAqaVESIFTII6M" name="第 1 页">
    <mxGraphModel dx="1301" dy="824" grid="1" gridSize="10" guides="1" tooltips="1" connect="1" arrows="1" fold="1" page="1" pageScale="1" pageWidth="2339" pageHeight="3300" math="0" shadow="0">
      <root>
        <mxCell id="0" />
        <mxCell id="1" parent="0" />
        <mxCell id="fvGuiGc2wL7ZiQ-JMnJC-1" value="" style="rounded=1;whiteSpace=wrap;html=1;" vertex="1" parent="1">
          <mxGeometry x="300" y="200" width="1420" height="830" as="geometry" />
        </mxCell>
        <mxCell id="fvGuiGc2wL7ZiQ-JMnJC-2" value="listener 8080" style="rounded=1;whiteSpace=wrap;html=1;" vertex="1" parent="1">
          <mxGeometry x="180" y="270" width="240" height="40" as="geometry" />
        </mxCell>
        <mxCell id="fvGuiGc2wL7ZiQ-JMnJC-3" value="listener 8443" style="rounded=1;whiteSpace=wrap;html=1;" vertex="1" parent="1">
          <mxGeometry x="180" y="380" width="240" height="40" as="geometry" />
        </mxCell>
        <mxCell id="fvGuiGc2wL7ZiQ-JMnJC-4" value="listener 15090" style="rounded=1;whiteSpace=wrap;html=1;" vertex="1" parent="1">
          <mxGeometry x="180" y="810" width="240" height="40" as="geometry" />
        </mxCell>
        <mxCell id="fvGuiGc2wL7ZiQ-JMnJC-5" value="listener 15021" style="rounded=1;whiteSpace=wrap;html=1;" vertex="1" parent="1">
          <mxGeometry x="180" y="890" width="240" height="40" as="geometry" />
        </mxCell>
        <mxCell id="fvGuiGc2wL7ZiQ-JMnJC-6" value="listener 31400" style="rounded=1;whiteSpace=wrap;html=1;" vertex="1" parent="1">
          <mxGeometry x="180" y="490" width="240" height="40" as="geometry" />
        </mxCell>
        <mxCell id="fvGuiGc2wL7ZiQ-JMnJC-7" value="listener 15443" style="rounded=1;whiteSpace=wrap;html=1;" vertex="1" parent="1">
          <mxGeometry x="180" y="595" width="240" height="40" as="geometry" />
        </mxCell>
        <mxCell id="fvGuiGc2wL7ZiQ-JMnJC-12" value="&lt;div style=&quot;font-family: &amp;#34;menlo&amp;#34; , &amp;#34;monaco&amp;#34; , &amp;#34;courier new&amp;#34; , monospace ; line-height: 18px&quot;&gt;&lt;div style=&quot;font-family: &amp;#34;menlo&amp;#34; , &amp;#34;monaco&amp;#34; , &amp;#34;courier new&amp;#34; , monospace ; line-height: 18px&quot;&gt;&lt;span style=&quot;background-color: rgb(255 , 255 , 255)&quot;&gt;outbound|8000||httpbin.default.svc.cluster.local&lt;/span&gt;&lt;/div&gt;&lt;/div&gt;" style="rounded=1;whiteSpace=wrap;html=1;" vertex="1" parent="1">
          <mxGeometry x="1630" y="520" width="350" height="40" as="geometry" />
        </mxCell>
        <mxCell id="fvGuiGc2wL7ZiQ-JMnJC-13" value="http_connect_manager filter" style="rounded=1;whiteSpace=wrap;html=1;" vertex="1" parent="1">
          <mxGeometry x="610" y="240" width="270" height="300" as="geometry" />
        </mxCell>
        <mxCell id="fvGuiGc2wL7ZiQ-JMnJC-14" value="" style="rounded=1;whiteSpace=wrap;html=1;" vertex="1" parent="1">
          <mxGeometry x="1070" y="240" width="360" height="470" as="geometry" />
        </mxCell>
        <mxCell id="fvGuiGc2wL7ZiQ-JMnJC-15" value="&lt;div style=&quot;font-family: &amp;#34;menlo&amp;#34; , &amp;#34;monaco&amp;#34; , &amp;#34;courier new&amp;#34; , monospace ; line-height: 18px&quot;&gt;&lt;span style=&quot;background-color: rgb(255 , 255 , 255)&quot;&gt;https.443.http.httpbin-gateway.default&lt;/span&gt;&lt;/div&gt;" style="text;html=1;strokeColor=none;fillColor=none;align=center;verticalAlign=middle;whiteSpace=wrap;rounded=0;" vertex="1" parent="1">
          <mxGeometry x="1020" y="260" width="410" height="20" as="geometry" />
        </mxCell>
        <mxCell id="fvGuiGc2wL7ZiQ-JMnJC-16" value="domian&lt;br&gt;*" style="rounded=1;whiteSpace=wrap;html=1;" vertex="1" parent="1">
          <mxGeometry x="1100" y="310" width="270" height="90" as="geometry" />
        </mxCell>
      </root>
    </mxGraphModel>
  </diagram>
</mxfile>
